<svg width="67" height="9" viewBox="0 0 67 9" fill="none" xmlns="http://www.w3.org/2000/svg">
<path d="M0 8.84659V0.119315H3.78409C4.44886 0.119315 5.0071 0.208804 5.45881 0.387781C5.91335 0.566758 6.25568 0.819599 6.4858 1.1463C6.71875 1.47301 6.83523 1.85795 6.83523 2.30113C6.83523 2.62216 6.7642 2.91477 6.62216 3.17897C6.48295 3.44318 6.28693 3.66477 6.03409 3.84375C5.78125 4.01988 5.4858 4.14204 5.14773 4.21022V4.29545C5.52273 4.30966 5.86364 4.40483 6.17045 4.58096C6.47727 4.75426 6.72159 4.99432 6.90341 5.30113C7.08523 5.60511 7.17614 5.96307 7.17614 6.375C7.17614 6.85227 7.05114 7.27699 6.80114 7.64914C6.55398 8.0213 6.2017 8.31392 5.74432 8.52699C5.28693 8.74005 4.74148 8.84659 4.10795 8.84659H0ZM2.36932 6.95454H3.47727C3.875 6.95454 4.1733 6.88068 4.37216 6.73295C4.57102 6.58238 4.67045 6.36079 4.67045 6.06818C4.67045 5.86363 4.62358 5.69034 4.52983 5.54829C4.43608 5.40625 4.30256 5.29829 4.12926 5.22443C3.95881 5.15057 3.75284 5.11363 3.51136 5.11363H2.36932V6.95454ZM2.36932 3.64772H3.34091C3.5483 3.64772 3.73153 3.61505 3.89062 3.54971C4.04972 3.48437 4.1733 3.39062 4.26136 3.26846C4.35227 3.14346 4.39773 2.99147 4.39773 2.8125C4.39773 2.54261 4.30114 2.33664 4.10795 2.1946C3.91477 2.04971 3.67045 1.97727 3.375 1.97727H2.36932V3.64772ZM13.1804 0.119315H15.5497V5.71022C15.5497 6.375 15.3906 6.95028 15.0724 7.43608C14.7571 7.91903 14.3168 8.29261 13.7514 8.55682C13.1861 8.81818 12.5298 8.94886 11.7827 8.94886C11.0298 8.94886 10.3707 8.81818 9.8054 8.55682C9.24006 8.29261 8.79972 7.91903 8.48438 7.43608C8.17188 6.95028 8.01562 6.375 8.01562 5.71022V0.119315H10.3849V5.50568C10.3849 5.77557 10.4446 6.01704 10.5639 6.23011C10.6832 6.44034 10.848 6.60511 11.0582 6.72443C11.2713 6.84375 11.5128 6.90341 11.7827 6.90341C12.0554 6.90341 12.2969 6.84375 12.5071 6.72443C12.7173 6.60511 12.8821 6.44034 13.0014 6.23011C13.1207 6.01704 13.1804 5.77557 13.1804 5.50568V0.119315ZM34.891 0.119315V8.84659H33.8342V0.119315H34.891ZM43.9304 0.119315V8.84659H42.9077L38.152 1.99432H38.0668V8.84659H37.0099V0.119315H38.0327L42.8054 6.98863H42.8906V0.119315H43.9304ZM46.0451 8.84659V0.119315H51.3121V1.05682H47.1019V4.00568H51.0394V4.94318H47.1019V7.90909H51.3803V8.84659H46.0451ZM57.9897 2.30113C57.9386 1.86932 57.7312 1.53409 57.3675 1.29545C57.0039 1.05682 56.5579 0.937497 56.0295 0.937497C55.6431 0.937497 55.305 0.999997 55.0153 1.125C54.7283 1.25 54.5039 1.42187 54.342 1.64062C54.1829 1.85937 54.1033 2.10795 54.1033 2.38636C54.1033 2.61931 54.1587 2.8196 54.2695 2.98721C54.3832 3.15199 54.5281 3.28977 54.7042 3.40057C54.8803 3.50852 55.065 3.59801 55.2582 3.66903C55.4513 3.73721 55.6289 3.79261 55.7908 3.83522L56.6772 4.07386C56.9045 4.13352 57.1573 4.21591 57.4357 4.32102C57.717 4.42613 57.9854 4.5696 58.2411 4.75142C58.4996 4.93039 58.7127 5.16051 58.8803 5.44176C59.0479 5.72301 59.1317 6.06818 59.1317 6.47727C59.1317 6.94886 59.0082 7.375 58.761 7.75568C58.5167 8.13636 58.1587 8.43892 57.6871 8.66335C57.2184 8.88778 56.6488 9 55.9783 9C55.3533 9 54.8121 8.89914 54.3548 8.69744C53.9002 8.49574 53.5423 8.21449 53.2809 7.85369C53.0224 7.49289 52.8761 7.07386 52.842 6.59659H53.9329C53.9613 6.92613 54.0721 7.19886 54.2653 7.41477C54.4613 7.62784 54.7085 7.78693 55.0067 7.89204C55.3079 7.99432 55.6317 8.04545 55.9783 8.04545C56.3817 8.04545 56.744 7.98011 57.065 7.84943C57.386 7.71591 57.6403 7.53125 57.8278 7.29545C58.0153 7.05682 58.109 6.77841 58.109 6.46022C58.109 6.17045 58.0281 5.93466 57.8661 5.75284C57.7042 5.57102 57.4911 5.42329 57.2269 5.30966C56.9627 5.19602 56.6772 5.09659 56.3704 5.01136L55.2965 4.70454C54.6147 4.50852 54.0749 4.22869 53.6772 3.86505C53.2795 3.50142 53.0806 3.02557 53.0806 2.4375C53.0806 1.94886 53.2127 1.52272 53.4769 1.15909C53.744 0.792611 54.1019 0.50852 54.5508 0.306815C55.0025 0.10227 55.5067 -3.09944e-06 56.0636 -3.09944e-06C56.6261 -3.09944e-06 57.1261 0.100849 57.5636 0.302554C58.0011 0.501417 58.3477 0.774144 58.6033 1.12074C58.8619 1.46733 58.9982 1.86079 59.0124 2.30113H57.9897ZM65.642 2.30113C65.5909 1.86932 65.3835 1.53409 65.0199 1.29545C64.6563 1.05682 64.2102 0.937497 63.6818 0.937497C63.2955 0.937497 62.9574 0.999997 62.6676 1.125C62.3807 1.25 62.1563 1.42187 61.9943 1.64062C61.8352 1.85937 61.7557 2.10795 61.7557 2.38636C61.7557 2.61931 61.8111 2.8196 61.9219 2.98721C62.0355 3.15199 62.1804 3.28977 62.3565 3.40057C62.5327 3.50852 62.7173 3.59801 62.9105 3.66903C63.1037 3.73721 63.2812 3.79261 63.4432 3.83522L64.3295 4.07386C64.5568 4.13352 64.8097 4.21591 65.0881 4.32102C65.3693 4.42613 65.6378 4.5696 65.8935 4.75142C66.152 4.93039 66.3651 5.16051 66.5327 5.44176C66.7003 5.72301 66.7841 6.06818 66.7841 6.47727C66.7841 6.94886 66.6605 7.375 66.4134 7.75568C66.169 8.13636 65.8111 8.43892 65.3395 8.66335C64.8707 8.88778 64.3011 9 63.6307 9C63.0057 9 62.4645 8.89914 62.0071 8.69744C61.5526 8.49574 61.1946 8.21449 60.9332 7.85369C60.6747 7.49289 60.5284 7.07386 60.4943 6.59659H61.5852C61.6136 6.92613 61.7244 7.19886 61.9176 7.41477C62.1136 7.62784 62.3608 7.78693 62.6591 7.89204C62.9602 7.99432 63.2841 8.04545 63.6307 8.04545C64.0341 8.04545 64.3963 7.98011 64.7173 7.84943C65.0384 7.71591 65.2926 7.53125 65.4801 7.29545C65.6676 7.05682 65.7614 6.77841 65.7614 6.46022C65.7614 6.17045 65.6804 5.93466 65.5185 5.75284C65.3565 5.57102 65.1435 5.42329 64.8793 5.30966C64.6151 5.19602 64.3295 5.09659 64.0227 5.01136L62.9489 4.70454C62.267 4.50852 61.7273 4.22869 61.3295 3.86505C60.9318 3.50142 60.733 3.02557 60.733 2.4375C60.733 1.94886 60.8651 1.52272 61.1293 1.15909C61.3963 0.792611 61.7543 0.50852 62.2031 0.306815C62.6548 0.10227 63.1591 -3.09944e-06 63.7159 -3.09944e-06C64.2784 -3.09944e-06 64.7784 0.100849 65.2159 0.302554C65.6534 0.501417 66 0.774144 66.2557 1.12074C66.5142 1.46733 66.6506 1.86079 66.6648 2.30113H65.642Z" fill="white"/>
<path d="M16.7099 8.84659V7.53409L20.8349 2.02841H16.7269V0.119315H23.8519V1.43182L19.7269 6.9375H23.8349V8.84659H16.7099ZM25.0419 8.84659V7.53409L29.1669 2.02841H25.0589V0.119315H32.1839V1.43182L28.0589 6.9375H32.1669V8.84659H25.0419Z" fill="#F88C19"/>
</svg>
